# xmcd
# Copyright (C) 1995-1998 Ti Kan
#
# Track frame offsets:
#       150
#       14315
#       29973
#       45681
#
# Disc length: 847 seconds
#
# Revision: 0
# Processed by: cddbd v1.5.2PL0 Copyright (c) Steve Scherf et al.
# Submitted via: CD-Import v1.0
#
DISCID=30034d04
DTITLE=Andrea Berg - 
DYEAR=1900
DGENRE=
TTITLE0=Wenn Du Mich Willst (Dann Küss Mich Doch)
TTITLE1=Warum Nur Träumen
TTITLE2=Vielleicht Ein Traum Zu Viel
TTITLE3=Schau Mir Nochmal Ins Gesicht
EXTD=
EXTT0=
EXTT1=
EXTT2=
EXTT3=
PLAYORDER=
